<mxfile host="Electron" agent="Mozilla/5.0 (Windows NT 10.0; Win64; x64) AppleWebKit/537.36 (KHTML, like Gecko) draw.io/27.0.9 Chrome/134.0.6998.205 Electron/35.4.0 Safari/537.36" version="27.0.9">
  <diagram name="PÃ¡gina-1" id="dF4nnUd0anYikJNIj7My">
    <mxGraphModel dx="1557" dy="1179" grid="1" gridSize="10" guides="1" tooltips="1" connect="1" arrows="1" fold="1" page="1" pageScale="1" pageWidth="827" pageHeight="1169" math="0" shadow="0">
      <root>
        <mxCell id="0" />
        <mxCell id="1" parent="0" />
        <mxCell id="XqAnNZFwj1toHwEkGpyd-6" value="" style="ellipse;whiteSpace=wrap;html=1;aspect=fixed;fillColor=#d5e8d4;strokeColor=#82b366;" vertex="1" parent="1">
          <mxGeometry x="162.5" y="110" width="490" height="490" as="geometry" />
        </mxCell>
        <mxCell id="XqAnNZFwj1toHwEkGpyd-5" value="Aplication" style="ellipse;whiteSpace=wrap;html=1;aspect=fixed;fillColor=#dae8fc;strokeColor=#6c8ebf;labelPosition=left;verticalLabelPosition=middle;align=right;verticalAlign=middle;" vertex="1" parent="1">
          <mxGeometry x="262.5" y="212.5" width="285" height="285" as="geometry" />
        </mxCell>
        <mxCell id="XqAnNZFwj1toHwEkGpyd-4" value="Entity" style="ellipse;whiteSpace=wrap;html=1;aspect=fixed;fillColor=#f8cecc;strokeColor=#b85450;labelPosition=left;verticalLabelPosition=middle;align=right;verticalAlign=middle;" vertex="1" parent="1">
          <mxGeometry x="320" y="270" width="170" height="170" as="geometry" />
        </mxCell>
        <mxCell id="BLkb1MyTp14h9ie8LVet-3" value="Web APP&amp;nbsp;&lt;span style=&quot;background-color: transparent; color: light-dark(rgb(0, 0, 0), rgb(255, 255, 255));&quot;&gt;/ API&lt;/span&gt;" style="rounded=1;whiteSpace=wrap;html=1;absoluteArcSize=1;arcSize=14;strokeWidth=2;" parent="1" vertex="1">
          <mxGeometry x="332.5" y="510" width="150" height="50" as="geometry" />
        </mxCell>
        <mxCell id="XqAnNZFwj1toHwEkGpyd-7" style="edgeStyle=orthogonalEdgeStyle;rounded=0;orthogonalLoop=1;jettySize=auto;html=1;entryX=0.75;entryY=1;entryDx=0;entryDy=0;" edge="1" parent="1" source="BLkb1MyTp14h9ie8LVet-6" target="BLkb1MyTp14h9ie8LVet-3">
          <mxGeometry relative="1" as="geometry" />
        </mxCell>
        <mxCell id="BLkb1MyTp14h9ie8LVet-6" value="Mobile APP" style="rounded=1;whiteSpace=wrap;html=1;absoluteArcSize=1;arcSize=14;strokeWidth=2;" parent="1" vertex="1">
          <mxGeometry x="482.5" y="780" width="160" height="50" as="geometry" />
        </mxCell>
        <mxCell id="BLkb1MyTp14h9ie8LVet-8" value="" style="strokeWidth=2;html=1;shape=mxgraph.flowchart.database;whiteSpace=wrap;" parent="1" vertex="1">
          <mxGeometry x="377.5" y="10" width="60" height="60" as="geometry" />
        </mxCell>
        <mxCell id="BLkb1MyTp14h9ie8LVet-13" style="edgeStyle=orthogonalEdgeStyle;rounded=0;orthogonalLoop=1;jettySize=auto;html=1;" parent="1" source="BLkb1MyTp14h9ie8LVet-12" target="BLkb1MyTp14h9ie8LVet-3" edge="1">
          <mxGeometry relative="1" as="geometry" />
        </mxCell>
        <mxCell id="BLkb1MyTp14h9ie8LVet-14" style="edgeStyle=orthogonalEdgeStyle;rounded=0;orthogonalLoop=1;jettySize=auto;html=1;" parent="1" source="BLkb1MyTp14h9ie8LVet-12" target="BLkb1MyTp14h9ie8LVet-6" edge="1">
          <mxGeometry relative="1" as="geometry">
            <Array as="points">
              <mxPoint x="330" y="760" />
              <mxPoint x="330" y="805" />
            </Array>
          </mxGeometry>
        </mxCell>
        <mxCell id="BLkb1MyTp14h9ie8LVet-12" value="" style="verticalLabelPosition=bottom;verticalAlign=top;html=1;shape=mxgraph.basic.smiley" parent="1" vertex="1">
          <mxGeometry x="180" y="710" width="100" height="100" as="geometry" />
        </mxCell>
        <mxCell id="XqAnNZFwj1toHwEkGpyd-8" style="edgeStyle=orthogonalEdgeStyle;rounded=0;orthogonalLoop=1;jettySize=auto;html=1;" edge="1" parent="1" source="XqAnNZFwj1toHwEkGpyd-2" target="BLkb1MyTp14h9ie8LVet-8">
          <mxGeometry relative="1" as="geometry" />
        </mxCell>
        <mxCell id="XqAnNZFwj1toHwEkGpyd-2" value="Entity Framework" style="rounded=1;whiteSpace=wrap;html=1;absoluteArcSize=1;arcSize=14;strokeWidth=2;" vertex="1" parent="1">
          <mxGeometry x="335" y="150" width="145" height="50" as="geometry" />
        </mxCell>
        <mxCell id="XqAnNZFwj1toHwEkGpyd-48" value="" style="shape=image;verticalLabelPosition=bottom;labelBackgroundColor=default;verticalAlign=top;aspect=fixed;imageAspect=0;image=data:image/png,iVBORw0KGgoAAAANSUhEUgAAAzAAAAFcCAYAAAAXoVsTAAAAAXNSR0IArs4c6QAAAARnQU1BAACxjwv8YQUAAAAJcEhZcwAADsMAAA7DAcdvqGQAADRASURBVHhe7d1BaCNpfvfxX70JLAQmJIfwbtiErBR3mBL2QSYh4SWB7mMsbOhe+hAp1iFO9pLbSjakaaZ7hqZ3Y0vktDkkeA92JAjDdoONlGM3JLxJ2GAd7LiasSPNhN1TDrtkmO6Zl8DzHqpKqipLZcuWXS7p+wExrUelKnv373rq//yfp8oyxhgBAAAAQAr8r2gDAAAAANxWJDAAAAAAUoMEBgAAAEBqkMAAAAAASA0SGAAAAACpQQIDAAAAIDVIYAAAAACkBgkMAAAAgNQggQEAAACQGiQwAAAAAFKDBAYAAABAapDAAAAAAEgNEhgAAAAAqWEZY0y0EUije/fu6fXr19Fm4EbcvXtXr169ijYDQGrRryJJcf0qCQymhmVZIpyRFOIPwLThvIYkxcUfU8gAAAAApAYJDAAAAIDUIIEBAAAAkBqsgcHUGDZXcuv7zdD7Ydb/vBhtAsY2LP4AIM2GndfoV3FThsWfjwQGU2NYoG99v6lv/3Eh1Bb0N3/X4kSLiRgWfwCQZsPOa/SruCnD4s/HFDIAAAAAqUECg6n35ZdfjXwBAIDxRPtS+lXcNBIYTL0vvnirr3/9f595ffHF2+imU6Sn+oIlyxryWqirF908lruv0n60HQAwi2azX/Wd7V9zW+P1qmec1pWzSmpH2zESCQym3tt373R45Ojw6DjwcvT23bvoplMko8qhkTFG5qQmW7ZqJ977w4oy0c0BALig2exXJamtkpVVNd9y+1NjZExL+Y0sg3w3jAQGU++LL97p7Rdvvf++C72fVb2tXGD0KKf6qffBfinQPmI0aL8U/g4AYKbMar/a26qqOV9Td2cp0LqkZ5u2mh8HesxgXxqa9dBWKTgjojy0l8UFkMBg6r17+05v371z//vW+6/3fibtl5TdyKvljR61Vh1VP2q7J9aVTr9S093sqBoti++XZD1aVNccqzIX/ggAMBtms1/t6cWOI7v84Mwshsz6sYyf1JzWlVtpqrhnZExXNVWVLbe9qWcFdTa7g9kRu1UGAy+JBAZT70f//pl+dPSZ+1//5b2fScsNGdOQP35kL9iRDVyZ9WMdrwdO02/qyq1ILaagAcBMm+V+Nf/+oAdsl4esL3UO5MzX9GxZ7nTu50Vpt6G2N7W736/O2cr394Rx8RwYTA0r5n7hM+20rtydba2d+FWTnuoLWVWPAtusttzRo9O6cneqciRpvqbuYUUZf3vVVMtXdfDQqLEc+C4k4g/AFOK8FuT2hdvlbnhwT4HZCYcVaSun7M6a13/6ffCBaqahpf2SrJXgg0Bt1U6OVVFgm8Cnsy4u/qjAADOmt1VQVTV1vSlk3c1ABWauomO/vbztlb1dxecVVT6oqbMyYm0MAABTK6MHZVvOzovYO3lm3o/UVZwDd1BQbZX6U8vcxf887vPySGCAmdbW4w331DrsNo5nppfNVVRbbZ5dGwMAwJTLrNdUPPLXtPjcxKTPXpR9VNXjfblVm0dNabV0prLS26oqWIvBeEhggBnTPwFbliyrodJeUeo46s1V1NrsqODN583urKkVLZNLWtppKb9RYOEhAGDGLKlhjFoqBO7Y6S3M96eMzVV0vFdUc8WSZbnTr927lnl3K1txv1dQTbV5RwfeGCLGwxoYTI24uZLAdSP+AEwbzmtIUlz8UYEBAAAAkBokMAAAAABSgwQGAAAAQGqQwAAAAABIDRIYAAAAAKlBAgMAAAAgNUhgAAAAAKQGz4HB1MhkMvr000+jzcCN+OY3v6lerxdtBoDUol9FkuL6VRIYTI24Bx4B1434AzBtOK8hSXHxxxQyAAAAAKlBAgMAAAAgNUhgAAAAAKQGCQwAAACA1CCBAQAAAJAaJDAAAAAAUoMEBgAAAEBqkMBgBrRVsnKqn0bb5X1mqbQfbQcAAMPRryJZJDAAAAAAUoMEBjOop/qCJcuyZJUb0Q8BAMBY6Fdxs0hgMHPa5ayqqqlrjMxDqRndAAAAXBj9Km4aCQxmTE9ORyo+rygjScvPVJuPbgMAAC6GfhU3jwQGM8bRwVG0DQAAXA79Km4eCQxmjK1FRoYAAJgQ+lXcPBIYzJiMHpRtNR/V1ZOk/ceqMnIEAMAl0a/i5pHAYOZk1luqqaqsZcl6tKjaanQLAABwUfSruGmWMcZEG4E0sixLhDOSQvwBmDac15CkuPijAgMAAAAgNUhgAAAAAKQGCQwAAACA1CCBAQAAAJAaJDAAAAAAUoMEBgAAAEBqkMAAAAAASA0SGAAAAACpQQIDAAAAIDVIYAAAAACkBgkMAAAAgNQggQEAAACQGiQwAAAAAFKDBAYAAABAapDAAAAAAEgNEhgAAAAAqUECgxnQVsmyZJXbodbeVu5MGwAAOA/9KpJFAoPZsVtV/TTaCAAALoV+FQkhgcGMsFVclar36+pFP/L0tnKyLMt75byTck/1BUulrbpy3me5rZ7aZX+7kgZjTe62/j5K+8G9AwAwTehXkRwSGMyMxQ9aqqmqx8NOgPslZTfyahkjY4xaq46qHw1Ooc0duZ/tFeVsZFVd6MqYrmrzTVW33FN3u5xVNd+S8bZrrvgnawAApg/9KpJCAoMZklHleVHNleDojme5IWMaWvLe2gt26GO7/EAZSbIXZauo2npGUkZ23t+ircauVHzo7WH5mWrzjg6cwT4AAJgu9KtIBgkMZstyQ63VwejOQLhMnd0InyHz72dC70dprvj7yKp6JHXeRI8DAMAUoV9FAkhgMHOWPqhJGwU9Phy09bYKqqqmrlfq7m6GR4ouxlbtxP2+/zpev9gJGgCAixr3bl/t8vVOvaJfxU0jgcHsmauotSk1d0fVodt6HBkpOt+SSsH5vafu4kQWHAIAJqm3lTtTzRjptK6cVVJDeR185C6Wvxb0q7hhJDCYSZn1lmrzwfc1FY+qylqWLKuh0l5R6jgj76wyzNJOV7VOwS1136lKm101lqNbAcD1aJevcoHq3RnqvItD7yLy9t4R6oK/R0q1y5ayO2tqXbSaMVfRsSlJu03p4fVWL+hXcZMsY4yJNgJpZFmWCGckhfhD0tplS9WF7iUvUnuqL2R18NzEXyDul2R9XJLZ8Zdm3zYX/D1SrreVU/awdoH/H3qqLxSkly3pfkF6eazKXHSb0TivIUlx8UcFBgCAlOtt5VTYlZyNrFeFCS+gthYCz+rYLw3aQ8/cCNgvBZ7bEWhbaUq7hcH+gvsKHKNdtpRbcJ8BcqYqtF+StZBzKznn7Cf29/CO438Wqrq8CT9jZHZlVDk8VmXO/2/0cyCdSGAAAEi5zPqxWquSvelWYELPzzAtFY/8Z3W0VVrp9BdGdzc7Z+8etV+S9WhRXRO54F1uyOwVpfmauocVZU7ryq00Vdwz7vM7VFU2sLDc0Zq6oxZdH0lrJ0amvx//ZwrvZ/Tv4SVt8j47qakTuJVv+BkjhWtdwA7g5pHAAMDEtVUaMWIc57rvFITZsbRjAtOLbC0G1iYEZdaPwwnGm7pyK1LrsOI+oyOOcyBnvqZny+o/D0S7jUFFJ2/H7CMv20uOei+35cyv6cGcBvvx1kqM/j16erHjDJ4RMlfRcfCZI/4zRpZLKvpfATA1SGAAYKLcOeedza6MMWrlw6PSQ93UnYIwOwKL7f3nZ7iW1DhZ0/ad4Ql2c0daW22qcYFF8L03nXCDvajg0vLogwtD5sPbqr/Y23KnqR0dyFHc7+HooP/vsy76jBEA6UQCAwAT5ejgyNbaffcCaulhZFR6mBu8UxBmQU/1++4dm9ypV93Q3aHcePOmkJW3Qwl28XlFlQ/C07FGybzff2S6y/GSjstY9aeJ+a+GlmJ/j9FVpZnkDYJ4E+9Uiq5fAqYMCQwATNKpo05geow7Kt2RE3sx0VN9oarFk64WH3HhgQnbfzyoXIQudF1nKiVzFdWGPlk9wl6U3V+T0lP9UVNaLfWncV1U5v6a7N1qP+7b5bOVISnyeygjOy81Pw4+I2R2/nYy68fhO5CFptAtqRFdvwRMGRIYAJikS41Cc6cgXJ29YHt3IZMqz4tyNrLu1KuPS2qtSp03Pe+Bgx0VvGlZ2Z01tYZU/JZ2Wsqft/h9rqLjvaKaK970LtXUPfe2vkPMVXS8l1fVm9ZW2C16a3Dc9TBDf48hzwjJ7/G3A8wKngODqWHF3C8cuG79+DutK3fnQDV/NPS0rtydba2dcHEF4Hb5wQ9+oIcPH+q9996LfiTRryJhcfFHBQYAJmnOVj44Zcw5kBOcUgYAt8Q///M/69d+7df04Ycf6vPPP49+DNxaJDAAMFG2Fucdbb90p7m0P77cugAAuG5/+7d/q3/5l3/Rj3/8YxIZpAoJDABMVEaVw5by3rz9QiewLoA7BQG4ZWzbJpFB6rAGBlMjbq4kcN0sy4o2Adfi7t27ev36dbQZmJhf//Vf171797Szs0O/isTEXdeRwGBqxAU6cN2IPwBp5jiO/uqv/kp///d/r+985zv6zne+o1/8xV/kvIbExPWrTCEDAACYUY7j6Nvf/rZ+7/d+T9/4xjf04x//WE+ePBl5ZzLgNiCBAQAAmEF/9md/pt/93d8lcUHqMIUMUyOu1AhcN+IPQNrwHBjcZnHxRwUGM6CtkvfU6eCrtB/d7jr0VF+4wLGCd6cK3akKAIDr8Sd/8icjk5d49KtIFgkMZkZxz8gY73VSU2flAifAK8uocmjUWI62x5ir6Nh/ijsAALcU/SqSQgKD2TRXUWvTVvNRXe7jBiXtlwYjSQsj2iMjOO1ydOTJHRnKLeS8tsBIkTcCVN9yP7P6zwBpq3SnKkdNFayS2tGRoqE/l7ffcuCzMmNLAICE0K/iBpHAYGZl7q/JPjqQI+8kuNJR7cTImK5qqipbbrsnwX67UXezo+qWd6rbyqmgVmDkaXBydPI1GTNshKip6qH7WXdTqt6vq6clNU5qslVUKzpCdFpXbqXpjXIFfy5vb51FdY2R2StKu1UeiggASAz9Km4KCQwgqfdyW878mh7MyS1PPy9KHWcwWuTJrB/reD0jqacXO46KD73TYqQ8bS/Ywa8F2Kp94G6VWa+peLStF3EnR+dAznxNz5Y1+Ll2G/0Tul1+oIwkLZdUDH0RAIDk0K/iOpHAYHY53iiR76iqrF82XmlKRwdytKTGyZq270RLzY4OjoJfDsu/n4k2efKy56Jto/XedMIN9qKCp/DRxwEA4IbRr+KGkMBgZvXedKT5wIlr1Stb91/eyM9cRcdeW7e87ZWabS3Oh3Z3QR05/sjQqaPIafSMzPv5cEO0cwAA4JagX8VNIYHBbDqtq7DhqPi8oow/bzcw17Vd9kaFogv/+mXsjOy81PzY++S0rlx/8WAcR9svvbm+ofL6CPai7KOqHvsLGR81pdUSd1IBANwu9Ku4QSQwmBnNlcGdTaw7VeX3AosB5yo63sur6pW0C7tFtQ4rysxV1NrsqOB9L7uzpta6W15e2umq1ikE9nesStxJU5JUVP4w6+5rI+8eQ5LmbOX9u6UEN5+r6Hiv6P3sWVVVU3eH0ywAIHn0q0iKZcyIR1wCKWPFPLH1VjitK3fnQLXoHVEwFW59/AHAmG79eY1+darFxR8VGAAAAACpQQUGUyMuUweuG/EHYNpwXkOS4uKPCgwAAACA1CCBAQAAAJAaJDAAAAAAUoMEBgAAAEBqkMAAAAAASA0SGAAAAACpQQIDAAAAIDVIYAAAAACkBgkMAAAAgNQggQEAAACQGiQwAAAAAFKDBAYAAABAapDAAAAAAEgNEhgAAAAAqUECgxnQVsmyZEVf5XZ0Q9dpXTmrpBGfjtBTfcFSaV/e8XKqn0a3AQBgurTLlqyFunrRDy4irr/dL11+v1H7JVmjjoNUIoHBzCjuGRnjv7qqdQpewhExV9GxaWgp2h4ro8qhUWM52g4AwJQ6ravaKaqobb2Y9KDdckPmsKJMtB0ggcHsysjOS503PW8EKKfcguWO0ERHhPZLg6pNfzTIrbjkFnKyLEulfb8C01N9oaCmHFXv5FT/m8gI0mlduUmNKAEAkKDey22p/EzPylL1o0B9I9qvSpHZEOFqiLPl9qVWcPaCX4GJVmJC1RS37/X76NCg5GldOb/940A7pgIJDGZUW41dKf++P7bjKP/cyEQrL6d15VaaXvWmq5qqygamnjn5mowJVl4yqhy2VJSt2smxKt8uqXg0GJlyT/YPGFECAKRcTy92pLX7GWXWayruNiJTtIL9qju4J28mRHezo0K/L21qWy0ZY9RadVS9HxnkW470o2860mpJS5La5ayqefe7Zq+o5oqfALVVulOVNrsyxqikZnCPmAIkMJgZzZXgGpiCOpvdQOJha9EOby9Jcg7kzNf0bFlucvK8KAVO0vbCsC8FLam06ujAUehkDwBAqp2+0LbW9GBOXl/XVCM0LTvQr56+0PZRUSWvz82sH8vs+MOFdr9fXHpY9NqCbC3OO9p+2fP6UUfFh0v9gUj335KWn6k27/W3p446Kqq27u33g5rO662RLiQwmBnhNTBGx96JzZWXPRd46+m96YQb7MXQSXBQwRlt6WFRzY/bkZM9AADp1Xu5Leeoqqw3MFjYldvX9QX6VedATuCTsOH970BGD8q2nEPnTCKk0OBkVtUjb2p47PEwDUhggBiZ9/PhhsucFJdLKu42VGf6GABgKrT1eMOJDAy2VNytDr8DZ2Twb1yZ+2uydxtqOwdyvOljLlu1kyGDk1c8Hm4/Ehggjr0o+6iqx/tyFws+avbn3l6cW1qvbjB9DAAwBfYbaipcCQlP9YqYs5XXYIpZbys33i2S5x5obb6pwkpzMGXMm6Ldv3mAt2i/tD/YvrrlHqH9UXX8wUfcaiQwQJy5io73il6JOquqaur25+2O4p7Eq3cGd1NZeliU5pk+BgBIv/bHwwbzvKleG4+HPG9lSY2TmjredK/sRl6tsW6R7O5bkaRpacd9JIJlWbK8Rfvu2taMKi9r0kZWlmWpulDTsNU1SC/LGGOijUAaWZal2xrO7bKl6kI3su4G0+Q2xx8AXAbnNSQpLv6owADXyr1HfaFTU4vkBQAA4MqowGBqxGXqwHUj/gBMG85rSFJc/FGBAQAAAJAaJDAAAAAAUoMEBgAAAEBqkMAAAAAASA0SGAAAAACpQQIDAAAAIDVIYAAAAACkBgkMAAAAgNQggQEAAACQGpYZ9YhLIGXintgKXDfiD8C0sSwr2gTcqFH9KgkMpgYXkEgS8Qdg2nBeQ5Li4o8pZAAAAABSgwQGAAAAQGqQwGAGtFWyLFnR10JdPfVUX7BU2o9+J2K/5G0/Stx+hh9/+LZntcuWclujjyx5P9+QY7jHifvZAAAA0oUEBjOjuGdkTOB1WFFGGVUOjRrL0a0jlhve9pcXOv5JTZ2VCSYVy43+vlurklZb/feN5Qv+jgAAAClAAoMZF6hOnNaVs0oqlYdUSYIVmFC1o6R2cHdv6sp5n8VWTeYqam3aaj4aVHV6W7nAfnOqn7pthV3J2cgO9hc8fmxVyHf2d6z3j5VT/TRQISoHfpvTwe9y5vcEAABICAkMENJUZ6Hbr2QEEwxXW6WVjmonbnWju9lRNZCoNHekljEye0U5GwXVT0NfDsncX5N9dCBHblKS3ci73zVGrVVH1Y/ayqwfq7Uq2ZtdHa9n3KSif/yuaqoqG0w6LqSpbbkVmtaqo+qdqhZP3KqQvVv1fua2SneqyntVo9ZqU4ULJUsAAADXiwQGM6O5ElwbMqqiYGvtvjtRbOlhMfrhGZn1Yzex8NjlB+40s+WSzv92wHJDxjS05L21F+zIBq7ey20582t6MCdJGVWeF6WOM2ZiMfgd7QVbWq2pMidpzlbe32S/oaaKKnnTzpY+qA2SLQAAgASRwGBmhNfADJKFsLzsuWhb0JIaJ2vavjN8Clf+/TFWyTjBhMCd5uUnWNmNmFThqKqsn4itNKWxE4vzfkdfUwX/OHeqctSRE1NRAgAAuAkkMMC45io69hKhbnn7ElO4XL03HWl+Ubak3lZBVdXU9fe7ObwCI4UX6McnY1c0P/h53NexW6kBAABIEAkMMA5vEXwwZRk13SvWaV2FDUfF58PubNbW4xEVmMz9tcA6FfcWy9Eq0EQsl1Q8quqxdxMD9wYDo6bdAQAA3BwSGGAccxW1Njv9qVXZnTW1Amtg4oTW4HgL5P1bG2fWayr2p4Y1VNobrG2xF+zBXcjmKjrey6vqTWEr7BbVuuLtnYdbUsO71bM7pU2qnVxTpQcAAGAMljHGRBuBNLIsS4QzkkL8AZg2nNeQpLj4owIDAAAAIDVIYAAAAACkBgkMAAAAgNQggQEAAACQGiQwAAAAAFKDBAYAAABAapDAAAAAAEgNEhgAAAAAqUECAwAAACA1SGAAAAAApAYJDAAAAIDUsIwxJtoIpJFlWdEm4EZxOgUwTSzL4ryGxMTFHwkMpkZcoAPXjfgDMG04ryFJcfHHFDIAAAAAqUECAwAAACA1SGAAAAAApAZrYDA14uZKAteN+AMwbe7du6fXr19Hm4EbcffuXb169SraLJHAYJpwAYkkEX8AANwMppABAAAASA0SGAAAAACpQQIDAAAAIDVIYAAAAACkBgkMAAAAgNQggQEAAACQGiQwAAAAAFKDBAYAAABAapDAAAAAAEgNEhgAAAAAqUECAwAAACA1SGAAAAAApAYJDAAAAIDUIIEBAAAAkBokMAAAAABSgwQGAAAAQGqQwAAAAABIDRIYAAAAAKlBAgMAAAAgNUhgAAAAAKQGCQwAAACA1CCBAQAAAJAaJDAAAAAAUoMEBgAAAEBqWMYYE20E0ujevXt6/fp1tBm4EXfv3tWrV6+izQAAYMJIYADok08+0W//9m/r3/7t3/Rbv/Vb0Y8BAABuDRIYAMpkMvrss8/0G7/xG+r1etGPAQAAbg3WwAAz7pNPPtGnn36qP/qjP9Knn36qTz75JLoJAADArUEFBphxmUxGP/3pT/Wzn/1Mv/RLv6Rf/uVfpgoDAABuLSowwAzzqy/f+973JEnf+973qMIAAIBbjQoMMMMymYx+9rOf6ac//Wm/jSoMAAC4zajAADPq5OREn376qb773e+G2v0qzMnJSagdAADgNqACA8yoYdUXH1UYAABwW1GBAWbQqOqLjyoMAAC4rajAADMorvriowoDAABuIyowwIw5r/riowoDAABuIyowwIz5gz/4A/3TP/1TtHmk3//939c//uM/RpsBAAASQQIDzKAXL15Em/Stb31LP/zhD6PNevDgQbQJAAAgMSQwACRJlmWJ0wEAALjtWAMDAAAAIDVIYAAAAACkBgkMAAAAgNQggQEAAACQGiQwAAAAAFKDBAYAAABAapDAAAAAAEgNEhgAAAAAqUECAwAAACA1SGAAAAAApIZljDHRRlzMvXv39Pr162gzkEo///M/r//5n/+JNgOpdPfuXb169SraDACYAiQwV2BZlvifD9OCeMY0IZ4BYHoxhQwAAABAapDAAAAAAEgNEhgAAAAAqUECAwAAACA1SGAAAAAApAYJDAAAAIDUIIEBAAAAkBokMAAAAABSgwQGAAAAQGqQwAAAAABIDRIYAAAAAKlBAgMAAAAgNUhgAAAAAKQGCQwAAACA1CCBAQAAAJAaJDAAAAAAUoMEBgAAAEBqkMAAAAAASA0SGAAAAACpYRljTLQRF2NZlvifD9OCeMY0IZ6Bq/vwww+jTcCNevLkSbRJogIDAACAYZ4+fRptAm5MXPxRgbkCRvgwTYhnTBPiGbg6/o6QpLj4owIDAAAAIDUsScNTG+Ca3b17V69evYo2X9q9e/f0+vXraDNwIyYdzxdF3GMcScUp0iluBBy4bnHxxxQyJCYuMC9j0vsDxpFU/CV1XKQT8YJxDIuXre83Q++HWf/zYrQJGNuw+PORwCAxcYF5GZPeHzCOpOIvqeMinYgXjGNYvGx9v6lv/3Eh1Bb0N3/XIoHBRAyLPx9rYAAAADC26MVl9D1wXUhgAAAAcGFffvmVvvzyK3311f/r/9t/D9yEM1PImNuImxJXGryMYfsjnnFThsXfTRh2XOIeowyLF2CUYfGy9f2mvvWH/0e/+ZuZULsk/cd/9PTDf/i/nF8wEcPizzc0gWFuI25CXGBexrD9Ec+4KcPi7yYMOy5xj1GGxQswyrB42fp+U394Ny9LloyM/Bva+u//4XUnteeXdtlSYTfaaqt2cqzKXLT94tplS9WFro7XM9J+SdajRXUPKzqbAiJoWPz5YqeQRb8UfQ+kSTR+o++BaRKN7+h7ALisL754py++eBt4Dd6n3mpLxpj+q7spVe/X1Ytud1nLDRmSlysbmsAwtxHThHjGLBoW7/6/AeAq3r19p7dv3+nt2y/17u270Ptpk7m/JvvoQI7fcFpXzrJkWZYsq6S2375fkrUwSHR6WzlZ5bZ6WzkVdiVnI6vcVi+wXU/1BUulcsnblyWr3N/b6ONAGpXAfPHFW3396//7zGsqMuuoUIAEX9cRLG2VrJzqp9F2XKepjed976QXPOFJXpwFYjhyUr047+S6H21HGkxt3ANI3I/+/TP96N8/0795/w2+nza9l9ty5hdlS27/eqcqbXZljFFrtanCOf1rZv1YrVXJ3vSmkEU0O4vqGiOzV5R2q941onuc/J5bBbrIcWbN0ATm7bt3OjpydHh0rEPvv0dHjt6+exfddErYqp0MyoXuq6Gl6GZIpamO53lb9m4jnGzvN9Sct72T7VXK1RlVDo0ay9F2pMHbd+9C8e7H/3XGfW8rN2QwyHJHHSdhvzTYl5fAXz7BdhP06M96pQEsb0BsYr8vcAut/3nx3Feq7RZC54PsRl4tvw89ddRRUTUvEVn6oCb7aFsvrjAwbZcfuPteLqn/v9x+Q00VVfL6X/c4gSoQhicwwbmMb6dtbuNYoiPQ7vtoB2pZVmCEe1RJsKf6QkFNOareoQpzk6Z6rq7WtLbaVCNwEdf+uKlieW3QEKzABGM2Wvo+0x6J/1Hl7P2SrIWSSv2LQeL7Nhh2/vbj/3qFB4S6m7acjcLVY+K0rtxK4O5qyw0Zc5UE203QjT/yKXeElAEsYMb118B0VZuX7M1ng/OBE0ki5mzlg+8vIf/+qOHFpgp+n3unKkcdOVc9j06RoQmMP5fx3dsvvf8O3s+WjB6UbTU/9i/VHB0c2Vq7n/E6047XUXdVU1XZwFSesyXBjCqHLRUncDcLjCcYv8G5utMSz/ZCMEbbauwWVbof2UhyS9L9mDXqbnZU3erFtEe+G1c2P2pKz/0TvqPqR5cav8YEDTt/+/F/kzLv591zZ7/X96c4uq9gtaJdPptAu8m3G3+O3HnkVrkdrsD0Kx/1wb5DUyvD1ZaLVUjCP+fouemjqkCRqZwAUiajysuatJEd/I3b/lQyz6mjTvB9gHN4xXrJfM29juy/uHYMGprABOczRl/TyVH1TqCjCnRWmffzkj9FZ7+h5vyaHsz5cyLdf0sZVZ4XpY7Tv6AbWhJEIqIxPG3xbN9fk+3H3n5DzdXShUaPM+vHQ+fjDm0/t2zul7rdpB/Ji8Z6UnHfe9ORZGvRlndRX1DTH+HcK8oJXhyMtKTGSU22XyXZGR7hzo70zKv6DOaSS+1yVtWjolpjHLNdLqjjJezu/gred3qq36/K8S4uWqtSc+VsktIuF9SUrdoJ1RwgteYqam3aaj7yBuzmbOXV7A/ytT+qBq4FJfX7xbYaZ27HPIblkopHVT32zlPu9Nyz55mZZmbdSc3Ysk3tJPqBr2WK3uetVRl7s2uMMaa7aRtJkVfRtEzX1OZlintnvx/+NyYdfpPe3623VzSar5mu6ZrafCRGT2rGVtG0Qtv58e7Fq982sj0Qy3tFL759gVgO7t//21gdbDkrkoq/pI47zPDzYuCct1c0UvD86MaYHz+tVf88evYzP0b9c3BoX378+nEXOk7LFIOfee/7+wlsH2ozZvBd7+Xuz/u5on9DJvJ3FPo9b4/bFC+4/WYtXlqrwXNFvzV8zgj9nQf7Rf8c5rbXAn2hf260N7uRvnvU9WL0OLN57RgXf0MrMAhaUmnV0fbLtpyON33MF7lXOPOmkYyMHpSl7Zd1NXYjMRo1V9GxvzahvD2Y9jiq3TdG2RyzzlsD41VMpLxsb3QyXI2ZPHthyI79WO0vzC2oee70Dn/KWUHaG6yRcXkVd0k6qiprBddAhvVHbQGkwtKOGVLhXVLDmMHMhEB/Gb3uW9oZtFfWj/v7yqwfy/j76N9YJ3qjnCU1gtPEQsdh+lgUCcwFLD0sytkoqKpBmTBzf012aIrC6E4MuG6Z+2vSRrU/xXGo07pykRK0vWCPbg86r2wORHlTL6SmCsEpuaH1MDfAX2QbHXA6c5EScPpC20fudLWhNwnwbiBgTMudInxUVSG4rma15U47C0wBAQBMDgmMNHwNTPBOSt46lv66FnmZ8V6+/73CbnFwm72RbC3OcxcyXAPvIi0Uo1FzFbU2O/27mmR31tRaz4xuD3HXIGgjO0a8Y9Zl1mvuBb4/2OOdS/s3ndh/rOqRVHzuxpKbOHt32vGSiKtbUmlVgbWMF7j9svf35FZpeqo/Ctz9zF+cX267fxdedSZ4JyF7we7/7lRhAOAaROeUATdl0uE36f0B40gq/pI67jDuPO/IXG1vfclgvciwdSW+wGfzRVMMroGJrj0ZsgZm6PqY6HeHrXUZsgYmtJ5n3g7vP7LWpT9n/tyfI3m3KV5w+xEvSFJc/FnG3QC4cZZlaZLhN+n9AeNIKv6SOi7SiXjBOIgXJCku/phCBgAAACA1SGAAAAAApAZTyJCYuNLgZUx6f8A4koq/pI6LdCJeMA7LsvT06dNoM3Ajnj59OvJ8RQUGAAAAQGpQgUFiJj0SOOn9AeNIKv6SOi7SiXjBOIgXJCku/qjAAAAAAEgNy7uPPXDjvvnNb6rXm9wj3jKZjD799NNoM3AjJh3PFxU3QgVEES8YB/GCJMXFH1PIkJi4wLyMSe8PGEdS8ZfUcZFOxAvGQbwgSXHxxxQyAAAAAKlBBQaJicusL2PS+wPGkVT8MXUS40hqqiPSKanzGqBz4o8EBomJC8zLmPT+gHEkFX9JHRfpRLxgHMQLkhQXf0whAwAAAJAaJDAAAAAYQ1slK6f6abRd3meWSvvRdmBySGAAAAAApAYJDAAAAK6gp/qCJcuyZJUb0Q+BiRuRwLjlPyvyumg5sF22lNs6/y4noe32S7IW6jr/W8C4rhbPF7ZfkmWV1Pb/vVBXzzupT/xYAADcEu1yVlXV1DVG5qHUjG4ATNiIBMZV3DMyxnud1NRZucYLseWGzGFFmWg7MCE3Gs99GVUOjRrL0XYAAKZBT05HKj73ruGWn6k2H90GmKzYBCZkrqLWpq3mo0GVpLeVC4xou4u5els5FXYlZyMbrq7423lVljPbRUest+rKed/JbfXULvvH8Ua43Z9gULK8jhF1TK8h8TwsTl2RCk55EIE6HcRp6eNB80CgAnNaV84qqdSP5UjMjjw+cBnDK4/XGltejLej/74UFgkDfdc0S+Xzzz+PNl2Co4OjaBtwvS6ewEjK3F+TfXQgR+4fU3Yjr5Y3ot1adVT9qK3M+rFaq5K92dXxesbtxFY6qp0YGdNVTVVly0O2i2juyN33XlHORlbVha77/fmmql5i1C5nVc233BH1vaKaK6M6O+CsUDyPiFM3ASmos9ntV27s3aoXZ22V7lQl77PShYrmTXUW3O1bqxokUCOPD1xNqPLoxVbhAlN8r2yuomPT0FK0HVBP9YWrJLezpbeVk7Vykf5lPD/5yU/0O7/zO/rwww+vmMjYWqTighs2VgITstyQCXRO9oId2cDVe7ktZ35ND+bkTqd5XpQ6zrmjCHb5gVuKtBdlq6jaekZSRnbe36Ktxq5UfOj9BMvPVJt3dOAM9gFc1Og4daeA9ZPsOVv9EDx11OnHprT0QU3D/wqCbK3d97Z/WOy3jj4+MEkZPSjbcg4DJ8qhlb/o2q1ANWRkJdFN6B01VbBKagcrMPslWQsllfoV8+Bg00Ur6SwSngqndeWsgrbzUoP1gefbL6mglrqb5/cu4/rGN76hX/3VX9V3v/td/cqv/MoVEhn3vNIfkNt/rCoVGVyz8RIYxxutls50OtmNmMzhqKqs30GuNCV/1DtG/v2zVZlhmiv+z5BV9UjqvOGSDxcUiueYOA1e4FmFQZ0l+v0Lycuei7Z5Rh0fmJieXuw4gwGn07pyK02vSjNO5W9YJXFJjZOabBXVGlZ5OWpKz73jzLsVe41RSWeR8JSYq+jY1JTf7WjxJesDz7XcGDpLZVL+8i//Uj/3cz+nr776SvV6/dKJTGa95Z4/LEvWo0XVVqNbAJNlGWNMtNEdbStIe+GTS28rp+zOmrqHFSnw74z/2WFNZmdJ7bKl6oI7NSzYHhXcTvslWY8W1T18oBcLWR089459WlfuzoFqXoc4+I6jklXV4smxKqMuCHGrWZaloeF3SaP3d8F4Hhqn0e+2B3GncGyGYnVYPNuR7fvbxB0faTE6/q7X6OO6sXvmQn+1NYizQAxm/PcrUss8kxM8D5+J+22t+efe4D6CfwPRv4cV9RObQb+gyN9XT/X+cQPHnAu2R7cL/nI4j2VZevr0abT5xjx5UlZ9oSC9rOngTkMl09CPPvwwuhkkPXnypP/vYH+VkfThBP83+8EPfqD//M//7L9/77339NVXX+lP//RP9dd//dcjzi/A9Rvdv41TgTmtq7DhDO4yEdLW4xEVmMz9tcCaATcBmcxCtCWVvHU30mAxNeVoXEgkni8ap72t6uCCcO6B1oJrsj6qXrpictHjA+Pqr4E5qcmWrdoHgyS596YT2tadsnsRMZXEUeZH7/v8SjqLhKdHRpXDY1XmltQYVqkDgIswQ7VMUTKKvIp7o7YpmtZe0Wi+ZrrGmO6mbSQZe7PrbrpXDOynaFreHkLb9b/fNbX5wLFOasYOfKe1Gtivt62/70E70mBk+F3S6P1dJJ7Pj1M3xlpD4tP/rGaK/veGxXMklgfbBN4POT7SYXT8Xa/Rx3XjPhjnbiyfF4NF0xp6HrZN7eScOA5+Fvx35DjdTdtoteX9jN5+zwh+Fvl5zrzHRY2OF9xm3U07/Lc6If/6r/9qfuEXfsFIMu+995752te+Zp4+fWr++7//2xjiBQmLi7/RnwDXLC4wL2PS+wPGkVT8jT7u2QTGv/DvD/Z4Cbi7jTcgtNqK/NtPfK4jgXEHpfx/h3+ecHITuoDzkn0SmPGNjhfcZteVwNy9e9d87WtfO5O4+IgXJCku/i4+hQwAkHLuHe6cjYI7XXGuouO9ojeFy1skv7PkbveyJnu3IMuyVNCaBvfMizFnK+/fhSz62QhLO13VOu5xLO+25MPWtbBIGLMss3488Yd9/+QnP9Fnn32mv/iLv9B//dd/6cmTJ3rvvfeimwG30ohF/MD1i1ucdRmT3h8wjqTiL6njIp2IFwR9/vnnsUkL8YIkxcUfFRgAAIAZFJe8ALcZCQwAAACA1CCBAQAAAJAaJDAAAAAAUoMEBgAAAEBqkMAAAAAASA0SGAAAAACpQQIDAAAAIDVIYAAAAACkhmVGPeISuGZxT1i9DMuyok3AjZpkPF/UpP+OMN2IF4yDeEGS4uKPBAaJiQvMy5j0/oBxJBV/SR0X6US8YBzEC5IUF39MIQMAAMCFtcuWLGvYq6T2aV05q6R29EuX1C5bym31os0RPdUXLJX2o+2SJvzz4HYggQEAAMCFLe0YGWNkTEtFScU9/31DS3MVHZuGlqJfAiaIBAYAAACTEah4uNWTukp+habcVm8r51VrcqqfDr4WrOr4FZfeVk6FXcnZyHptbqWlX/FZqCtUm3lTVy6yj6hhx0H6jEhg2oNgC77KXgGOchwAAADO4WwcqGSMzElN9m5B2cOajDFqrTqqfuReSfa2cip0aup622kjq9K+lFk/VmtVsje7Ol7PqF3OqppvDao/R1U9Dkwba24cqNbfRyGUICnmOEifEQmMa1ASNDKmq1qnwP/RAJAKwweiLnoOv9i888h2+6WzI6IAZttqyZ1ONmcrL1u1D9zJZfaC7W3Q04sdR3b5gTKSNFdRbVXqvDl7JlnaMTI7/uQ0W4vz4c/tzWfesSqqrTrafhncx8WPg9svNoEJy8jOD/8/elAOtGJLgoOOM1wCvGiHCgAYT2gg6qSmzso1nnOXGzKHFffiAABCiUo8ZyPbvy4s7ErOoRPdxJsB5F8/ZlU9Cn+cf//8s8+FjoNbb4wEpq3G7pDg2C8pu5FXy+sgz5QE5ZX6TmrqrPhzIgMlwL2imivhpAcAcA3mKmpt2mo+GlRJhg1AnZ137lVX/O28KsuZ7foVGO+OQFvh+eiDAa3gFGQGtABEZ/0EKy2+nur3q9JmdzAzKFKBGQyy9+R0wp/5zj8O0iA2gWmuDDoVyyqos9lVYzmy0XLDveuE9zZaEiw+9D7p35XCTYT67cvPVJt3dEACDADXLnN/TfbRgRyNHoCKzjvXaV25lY5qJ95Fg6rKlodsF9HckbvvvaKcjayqC13voqOpqpcYMaAFzLqMHpSDAyvu9Ndzp7DuPz5TgXF2Xrj7OH2h7SNba/eD56VLHge3UmwCE81Sh3VQ0dGz7IafiTg6iARW0CA5ckuAw6amAQCu0cgBqLDey20582t6MCdJGVWeF6WOc+5al/5cc3tRtoqqrWf605FdDGgB8Bbr56vKegPmzdVW/5rTXrC9Kq9Uee4OhliWJevjklqRNSzFslSwLFl3qsrvHasyFzjIOcdBusQmMBfR2yqoKu+ODsaou+l3gGcXVw3Y3kjeeckRAGCiHK/6IsUMQA1x5Hf6lqyVpuRXcWKcmXI8AgNaQFotqWFMeHZO4DkwSzvB67slNcwgqcisH4embw2eLROe1pVZPx5cJy43QtsM9p9R5dCosV7Rsfd5/2eKPJdm1HGQLldOYMLaetzvAN1RtubHwVsv51Q/XVIpsE7GX5DFvGcAuH69Nx1pflF27ADUEKv+rUv916QeVMeAFgBgPFdOYDLrNRX7I3MNlfYGUwuWdtxbL1uRcl60XcPW1gAAJuu0rsKGo+LzYXcKCw5AhWXur8nerfbXprTLQx4gdykMaAEAxmcZY0y0EbgJlmVpkuE36f0B40gq/kYft62SVVAz0lrcC073CG5TVGtPKjxaVPewIm3llN1wBgv090vu1DF/W68C0wtu9/5jWY8W1T18oBcLWR089451WlfuzoFq3nfaZUvVBX/hf0/1hcHtUEfdEACTMTpegLOIFyQpLv5IYJCYuMC8jEnvDxhHUvGX1HGRTsQLxkG8IElx8XflKWQAAAAAcFNIYAAAAACkBgkMAAAAgNQggQEAAACQGiQwAAAAAFKDBAYAAABAanAbZSQm7vZ4lzHp/QHjSCr+kjou0ol4wTgsy9LTp0+jzcCNePr06cjzFRUYAAAAAKlBBQaJmfRI4KT3B4wjqfhL6rhIJ+IF4yBekKS4+KMCAwAAACA1LEnDUxvgBozKrC8jLlMHrltS8ZfUcZFOxAvGQbwgSXHxxxQyJCYuMC9j0vsDxpFU/FmWFW0CYiURp0inpM5rgM6JPxIYJCYuMC9j0vsDxpFU/CV1XKQT8YJxEC9IUlz8sQYGAAAAQGpQgUFi4jLry5j0/oBxJBV/SR0X6US8YBwWz4FBguKeA0MCg8RMuiOd9P6AcSQVf/fu3dPr16+jzcBQd+/e1atXr6LNwFAffvhhtAm4UU+ePIk2SSQwSNKkL/gmvT9gHMQfAAA3gzUwAAAAAFKD58AgMZOeysBUGiRp0vEMAACGYwoZAAAAgNRgChkAAACA1CCBAQAAAJAa/x8WZTLHVvp51wAAAABJRU5ErkJggg==;" vertex="1" parent="1">
          <mxGeometry x="366" y="334.53000000000003" width="96" height="40.94" as="geometry" />
        </mxCell>
      </root>
    </mxGraphModel>
  </diagram>
</mxfile>
